<svg width="96" height="96" xmlns="http://www.w3.org/2000/svg" xmlns:xlink="http://www.w3.org/1999/xlink" xml:space="preserve" overflow="hidden"><defs><clipPath id="clip0"><rect x="918" y="51" width="96" height="96"/></clipPath></defs><g clip-path="url(#clip0)" transform="translate(-918 -51)"><path d="M996 121.79C993.942 121.87 991.913 122.299 990 123.06 988.726 123.587 987.375 123.905 986 124 984.625 123.905 983.274 123.587 982 123.06 980.087 122.299 978.058 121.87 976 121.79 973.942 121.87 971.913 122.299 970 123.06 968.726 123.587 967.375 123.905 966 124 964.625 123.905 963.274 123.587 962 123.06 960.087 122.299 958.058 121.87 956 121.79 953.942 121.87 951.913 122.299 950 123.06 948.726 123.587 947.375 123.905 946 124 944.625 123.905 943.274 123.587 942 123.06 940.087 122.299 938.058 121.87 936 121.79 933.942 121.87 931.913 122.299 930 123.06 928.726 123.587 927.375 123.905 926 124L926 130C928.058 129.92 930.087 129.491 932 128.73 933.27 128.182 934.621 127.845 936 127.73 937.379 127.845 938.73 128.182 940 128.73 941.913 129.491 943.942 129.92 946 130 948.058 129.92 950.087 129.491 952 128.73 953.27 128.182 954.621 127.845 956 127.73 957.375 127.825 958.726 128.143 960 128.67 961.908 129.456 963.938 129.906 966 130 968.058 129.92 970.087 129.491 972 128.73 973.27 128.182 974.621 127.845 976 127.73 977.379 127.845 978.73 128.182 980 128.73 981.913 129.491 983.942 129.92 986 130 988.058 129.92 990.087 129.491 992 128.73 993.27 128.182 994.621 127.845 996 127.73 997.375 127.825 998.726 128.143 1000 128.67 1001.91 129.456 1003.94 129.906 1006 130L1006 124C1004.62 123.905 1003.27 123.587 1002 123.06 1000.09 122.299 998.058 121.87 996 121.79Z" fill="#90C226"/><path d="M1002 111.06C1000.09 110.299 998.058 109.87 996 109.79 993.942 109.87 991.913 110.299 990 111.06 988.726 111.587 987.375 111.905 986 112 984.625 111.905 983.274 111.587 982 111.06 981.305 110.788 980.594 110.561 979.87 110.38 971.53 106.59 967.27 98.96 967.87 93.06 968.37 87.97 971.43 82.24 976.97 81.67 982.31 81.0735 987.2 84.7136 988.16 90 988.294 90.8977 989.095 91.542 990 91.48 990.48 91.4358 990.923 91.2019 991.23 90.83 991.527 90.4545 991.661 89.9751 991.6 89.5 989.81 76.15 977.91 67.18 964 68.61 956.45 69.39 949.36 74.11 942.92 82.61 942.06 83.74 941.22 84.88 940.38 86.02 935.91 92.02 931.65 97.82 926.04 101.74L926.04 118C928.098 117.92 930.127 117.491 932.04 116.73 933.31 116.182 934.661 115.845 936.04 115.73 937.419 115.845 938.77 116.182 940.04 116.73 941.941 117.486 943.956 117.916 946 118 948.058 117.92 950.087 117.491 952 116.73 953.27 116.182 954.621 115.845 956 115.73 957.375 115.825 958.726 116.143 960 116.67 961.908 117.456 963.938 117.906 966 118 968.058 117.92 970.087 117.491 972 116.73 973.27 116.182 974.621 115.845 976 115.73 977.379 115.845 978.73 116.182 980 116.73 981.913 117.491 983.942 117.92 986 118 988.058 117.92 990.087 117.491 992 116.73 993.27 116.182 994.621 115.845 996 115.73 997.375 115.825 998.726 116.143 1000 116.67 1001.91 117.456 1003.94 117.906 1006 118L1006 112C1004.62 111.905 1003.27 111.587 1002 111.06Z" fill="#90C226"/></g></svg>