{
  "accessors": [
    {
      "bufferView": 2,
      "componentType": 5126,
      "count": 267,
      "max": [
        0.08562099933624268,
        0.11368300020694733,
        1.7222039699554443
      ],
      "min": [
        -0.08562099933624268,
        -0.06478700041770935,
        1.548935055732727
      ],
      "type": "VEC3"
    },
    {
      "bufferView": 2,
      "byteOffset": 3204,
      "componentType": 5126,
      "count": 267,
      "max": [
        0.9987732172012329,
        0.9958604574203491,
        0.2238895446062088
      ],
      "min": [
        -0.9987732172012329,
        -0.9766842722892761,
        -0.8384929299354553
      ],
      "type": "VEC3"
    },
    {
      "bufferView": 1,
      "componentType": 5126,
      "count": 267,
      "max": [
        0.24450699985027313,
        0.841064989566803
      ],
      "min": [
        0.10278300195932388,
        0.6867679953575134
      ],
      "type": "VEC2"
    },
    {
      "bufferView": 0,
      "componentType": 5125,
      "count": 1296,
      "type": "SCALAR"
    },
    {
      "bufferView": 2,
      "byteOffset": 6408,
      "componentType": 5126,
      "count": 2102,
      "max": [
        0.10129400342702866,
        0.14120599627494812,
        1.7969900369644165
      ],
      "min": [
        -0.10129400342702866,
        -0.12082599848508835,
        1.610461950302124
      ],
      "type": "VEC3"
    },
    {
      "bufferView": 2,
      "byteOffset": 31632,
      "componentType": 5126,
      "count": 2102,
      "max": [
        0.9994803071022034,
        0.9993801116943359,
        0.9995827078819275
      ],
      "min": [
        -0.9983981847763062,
        -0.9980711936950684,
        -0.9998860359191895
      ],
      "type": "VEC3"
    },
    {
      "bufferView": 1,
      "byteOffset": 2136,
      "componentType": 5126,
      "count": 2102,
      "max": [
        0.8076170086860657,
        0.8472899794578552
      ],
      "min": [
        0.6567379832267761,
        0.7053220272064209
      ],
      "type": "VEC2"
    },
    {
      "bufferView": 0,
      "byteOffset": 5184,
      "componentType": 5125,
      "count": 11142,
      "type": "SCALAR"
    }
  ],
  "asset": {
    "extras": {
      "author": "Tigerar1 (https://sketchfab.com/allanromanreyes)",
      "license": "SKETCHFAB Standard (https://sketchfab.com/licenses)",
      "source": "https://sketchfab.com/3d-models/kawaki-2ae2f1e1f9714e9fab2d3a438d9f8b0b",
      "title": "Kawaki"
    },
    "generator": "Sketchfab-15.83.0",
    "version": "2.0"
  },
  "bufferViews": [
    {
      "buffer": 0,
      "byteLength": 49752,
      "name": "floatBufferViews",
      "target": 34963
    },
    {
      "buffer": 0,
      "byteLength": 18952,
      "byteOffset": 49752,
      "byteStride": 8,
      "name": "floatBufferViews",
      "target": 34962
    },
    {
      "buffer": 0,
      "byteLength": 56856,
      "byteOffset": 68704,
      "byteStride": 12,
      "name": "floatBufferViews",
      "target": 34962
    }
  ],
  "buffers": [
    {
      "byteLength": 125560,
      "uri": "scene.bin"
    }
  ],
  "images": [
    {
      "uri": "textures/Kawaki_Hair_Color_baseColor.png"
    }
  ],
  "materials": [
    {
      "doubleSided": true,
      "name": "Kawaki_Hair_Color",
      "pbrMetallicRoughness": {
        "baseColorTexture": {
          "index": 0
        },
        "metallicFactor": 0.0
      }
    },
    {
      "doubleSided": true,
      "name": "Kawaki_Part_Color",
      "pbrMetallicRoughness": {
        "baseColorTexture": {
          "index": 0
        },
        "metallicFactor": 0.0
      }
    }
  ],
  "meshes": [
    {
      "name": "Object_0",
      "primitives": [
        {
          "attributes": {
            "NORMAL": 1,
            "POSITION": 0,
            "TEXCOORD_0": 2
          },
          "indices": 3,
          "material": 1,
          "mode": 4
        }
      ]
    },
    {
      "name": "Object_1",
      "primitives": [
        {
          "attributes": {
            "NORMAL": 5,
            "POSITION": 4,
            "TEXCOORD_0": 6
          },
          "indices": 7,
          "material": 0,
          "mode": 4
        }
      ]
    }
  ],
  "nodes": [
    {
      "children": [
        1
      ],
      "matrix": [
        1.0,
        0.0,
        0.0,
        0.0,
        0.0,
        2.220446049250313e-16,
        -1.0,
        0.0,
        0.0,
        1.0,
        2.220446049250313e-16,
        0.0,
        0.0,
        0.0,
        0.0,
        1.0
      ],
      "name": "Sketchfab_model"
    },
    {
      "children": [
        2,
        3
      ],
      "name": "Kawaki.obj.cleaner.materialmerger.gles"
    },
    {
      "mesh": 0,
      "name": "Object_2"
    },
    {
      "mesh": 1,
      "name": "Object_3"
    }
  ],
  "samplers": [
    {
      "magFilter": 9729,
      "minFilter": 9987,
      "wrapS": 10497,
      "wrapT": 10497
    }
  ],
  "scene": 0,
  "scenes": [
    {
      "name": "Sketchfab_Scene",
      "nodes": [
        0
      ]
    }
  ],
  "textures": [
    {
      "sampler": 0,
      "source": 0
    }
  ]
}
